<?xml version="1.0" encoding="UTF-8" standalone="no"?>
<!-- Created with Inkscape (http://www.inkscape.org/) -->

<svg
   xmlns:dc="http://purl.org/dc/elements/1.1/"
   xmlns:cc="http://creativecommons.org/ns#"
   xmlns:rdf="http://www.w3.org/1999/02/22-rdf-syntax-ns#"
   xmlns:svg="http://www.w3.org/2000/svg"
   xmlns="http://www.w3.org/2000/svg"
   xmlns:sodipodi="http://sodipodi.sourceforge.net/DTD/sodipodi-0.dtd"
   xmlns:inkscape="http://www.inkscape.org/namespaces/inkscape"
   width="210mm"
   height="297mm"
   viewBox="0 0 210 297"
   version="1.1"
   id="svg8"
   inkscape:version="0.92.3 (2405546, 2018-03-11)"
   sodipodi:docname="logo.svg">
  <defs
     id="defs2" />
  <sodipodi:namedview
     id="base"
     pagecolor="#ffffff"
     bordercolor="#666666"
     borderopacity="1.0"
     inkscape:pageopacity="0.0"
     inkscape:pageshadow="2"
     inkscape:zoom="0.98994949"
     inkscape:cx="140.65329"
     inkscape:cy="560"
     inkscape:document-units="mm"
     inkscape:current-layer="layer1"
     showgrid="false"
     inkscape:window-width="2444"
     inkscape:window-height="1404"
     inkscape:window-x="116"
     inkscape:window-y="36"
     inkscape:window-maximized="1" />
  <metadata
     id="metadata5">
    <rdf:RDF>
      <cc:Work
         rdf:about="">
        <dc:format>image/svg+xml</dc:format>
        <dc:type
           rdf:resource="http://purl.org/dc/dcmitype/StillImage" />
        <dc:title></dc:title>
      </cc:Work>
    </rdf:RDF>
  </metadata>
  <g
     inkscape:label="Layer 1"
     inkscape:groupmode="layer"
     id="layer1">
    <flowRoot
       xml:space="preserve"
       id="flowRoot830"
       style="fill:black;stroke:none;stroke-opacity:1;stroke-width:1px;stroke-linejoin:miter;stroke-linecap:butt;fill-opacity:1;font-family:sans-serif;font-style:normal;font-weight:normal;font-size:10px;line-height:125%;letter-spacing:0px;word-spacing:0px"><flowRegion
         id="flowRegion832"><rect
           id="rect834"
           width="251.42857"
           height="14.285714"
           x="451.42856"
           y="513.94824" /></flowRegion><flowPara
         id="flowPara836"></flowPara></flowRoot>    <path
       style="fill:#f9f9f7;fill-opacity:1;stroke-width:0.26458332"
       d="m 91.449231,173.99447 c -2.73572,-0.44551 -5.397367,-1.31701 -7.397646,-2.42219 -1.731666,-0.95678 -5.159373,-3.67918 -5.159373,-4.09777 0,-0.19254 3.198284,-4.72241 5.210882,-7.3804 0.04682,-0.0618 0.861009,0.66731 1.809324,1.62029 3.070704,3.08583 6.163043,4.23597 11.368339,4.22822 2.009129,-0.003 3.277963,-0.13711 4.097293,-0.43309 2.23861,-0.80872 3.31913,-2.49596 2.64331,-4.12753 -0.5876,-1.4186 -2.2387,-2.09391 -8.365918,-3.42168 -6.659731,-1.4432 -10.055188,-2.83789 -12.470667,-5.12235 -2.750759,-2.60155 -3.787507,-6.22415 -2.941844,-10.27938 1.5639,-7.49937 9.887911,-11.87831 20.552979,-10.8121 5.94413,0.59424 10.21035,2.509 13.77717,6.18345 l 1.15275,1.18753 -2.9747,3.42189 -2.97469,3.42189 -2.01451,-2.02384 c -2.23173,-2.24206 -3.60792,-3.00999 -6.49552,-3.62455 -5.337058,-1.13587 -9.938778,0.62379 -9.938778,3.80051 0,2.23844 1.59825,3.08196 8.646363,4.56334 6.701935,1.40862 10.018055,2.81227 12.543425,5.3094 2.12619,2.10243 2.72202,3.74607 2.7345,7.54333 0.013,3.96251 -0.54256,5.37604 -3.12939,7.96191 -2.06131,2.06054 -3.93189,3.1076 -7.30115,4.08677 -2.51254,0.7302 -10.011318,0.96367 -13.372149,0.41635 z M 38.146379,153.06276 v -20.76979 h 11.353808 c 12.726079,0 14.104619,0.13449 17.395129,1.69715 4.560546,2.16579 6.691442,5.83612 6.701319,11.54257 0.0091,5.26099 -2.245614,9.17493 -6.478445,11.24586 -0.80033,0.39156 -1.455147,0.75525 -1.455147,0.80819 0,0.0529 2.321721,3.67564 5.159378,8.05045 2.837653,4.37483 5.159375,8.00848 5.159375,8.07479 0,0.0663 -2.649144,0.12058 -5.88698,0.12058 h -5.88698 l -4.479705,-7.67292 -4.479708,-7.67292 h -3.259354 -3.259357 v 7.67292 7.67292 h -5.291666 -5.291667 z m 22.064122,-2.88484 c 1.812755,-0.8869 2.542127,-2.18475 2.542127,-4.52349 0,-2.33747 -0.729575,-3.6367 -2.539405,-4.52216 -1.399037,-0.68449 -1.597832,-0.70742 -6.397561,-0.73798 l -4.953658,-0.0315 -0.0722,5.01895 c -0.03971,2.7604 -0.0072,5.18823 0.07218,5.39516 0.120202,0.31323 0.961146,0.35385 5.023133,0.24253 4.612918,-0.12642 4.957585,-0.17228 6.325386,-0.84148 z m 62.073379,2.88484 v -20.76979 h 16.13959 16.13958 v 4.10104 4.10104 H 143.84742 133.1318 v 4.22967 4.22968 l 8.53281,0.0698 8.53281,0.0698 0.0732,3.90259 0.0732,3.90261 h -8.60603 -8.60603 v 4.23333 4.23335 h 11.1125 11.1125 v 4.23333 4.23332 H 138.8203 122.28384 Z"
       id="path838-7"
       inkscape:connector-curvature="0" />
    <path
       style="fill:#ffffff;stroke-width:0.26458335;fill-opacity:1"
       d="m 62.066536,238.18553 c -3.869107,-1.31881 -6.253832,-4.01369 -7.235214,-8.17624 -0.306035,-1.29804 -0.392693,-3.66735 -0.395747,-10.82013 -0.0022,-5.03699 0.107184,-9.74396 0.242967,-10.45994 0.910215,-4.79955 3.5217,-7.63061 8.016283,-8.69029 3.003496,-0.70814 2.849339,-0.84383 2.849339,2.50796 v 2.90687 l -0.920248,0.3845 c -0.506137,0.21148 -1.160535,0.77863 -1.454219,1.26033 -0.512936,0.84131 -0.534011,1.30943 -0.534961,11.88304 -9.79e-4,10.98771 7.1e-5,11.00882 0.596829,11.90625 0.3288,0.49446 0.981067,1.07762 1.449482,1.2959 l 0.851665,0.39687 0.0057,3.10886 0.0057,3.10885 -0.859896,-0.007 c -0.472942,-0.004 -1.650922,-0.27645 -2.617732,-0.606 z m 33.092269,0.25105 c -2.989302,-0.806 -4.862454,-2.74794 -5.656982,-5.86473 -0.230672,-0.90488 -0.432231,-3.04678 -0.472236,-5.01828 l -0.0698,-3.43958 3.748582,-0.0733 3.748582,-0.0733 0.08788,3.28749 c 0.09984,3.73522 0.392829,4.39969 1.939959,4.39969 1.337895,0 1.72021,-0.6526 1.71721,-2.93125 -0.004,-3.05634 -0.581018,-4.01833 -5.350027,-8.91983 -5.416616,-5.5671 -6.212144,-7.28646 -5.726038,-12.37554 0.496461,-5.19748 3.624387,-8.05255 8.822121,-8.05255 6.088854,0 9.125834,2.91343 9.584164,9.19427 l 0.15929,2.18281 h -3.83953 -3.83953 l -0.138259,-1.72236 c -0.166412,-2.07316 -0.477861,-2.51097 -1.786276,-2.51097 -1.083506,0 -1.451562,0.29231 -1.721302,1.36703 -0.360985,1.43828 0.67428,2.92255 5.098587,7.30994 5.5002,5.45429 6.41755,7.2219 6.4077,12.34685 -0.0114,5.92328 -2.02148,9.78562 -5.65426,10.86444 -1.58135,0.46961 -5.368234,0.48523 -7.059835,0.0291 z m 33.091615,-2.60017 v -3.03481 l 0.97144,-0.63964 c 0.5343,-0.3518 1.21891,-0.9756 1.52136,-1.38622 0.53035,-0.72003 0.55295,-1.10585 0.63559,-10.84792 0.0573,-6.7572 -0.012,-10.54933 -0.20939,-11.45457 -0.3116,-1.42895 -0.98577,-2.26687 -2.1914,-2.72363 l -0.7276,-0.27566 v -2.94745 -2.94745 l 1.47705,0.18454 c 5.03478,0.62906 7.94383,3.1752 9.30597,8.14504 0.38778,1.41484 0.45375,3.00783 0.45745,11.04597 0.005,10.03117 -0.0851,10.9308 -1.36416,13.6769 -1.46701,3.14966 -4.96097,5.68758 -8.35496,6.06882 l -1.52135,0.17089 z M 68.189997,219.0645 v -19.46927 l 7.077605,0.091 c 6.722047,0.0864 7.133325,0.12062 8.186756,0.68141 1.29045,0.68697 2.267561,1.87243 2.904591,3.52393 0.361955,0.93837 0.455438,2.09691 0.468212,5.80266 0.01527,4.42603 -0.0132,4.68855 -0.645496,5.95313 -0.409229,0.81845 -1.042186,1.56837 -1.659893,1.9666 l -0.998437,0.64369 0.934466,0.53404 c 0.555482,0.31745 1.148435,0.97605 1.462058,1.62391 0.616133,1.27275 0.691216,2.78916 0.592535,11.96665 l -0.06615,6.15157 h -3.693483 -3.693483 l -0.07683,-8.35804 -0.07683,-8.35804 -0.624623,-0.5055 c -0.343546,-0.27803 -1.028155,-0.50551 -1.521354,-0.50551 h -0.896732 v 8.86355 8.86354 h -3.836458 -3.836459 z m 10.15332,-5.12437 c 0.801447,-0.30471 1.220158,-1.5947 1.222288,-3.76569 0.0016,-1.58034 -0.346615,-2.84683 -0.874972,-3.18279 -0.172797,-0.10987 -0.820193,-0.20159 -1.438656,-0.20382 l -1.124479,-0.004 v 3.70417 3.70416 h 0.776525 c 0.427091,0 1.074772,-0.11339 1.439294,-0.25198 z m 32.180013,5.14677 v -19.44687 h 7.80521 7.80521 v 3.70416 3.70417 h -3.83646 -3.83646 v 3.83646 3.83646 h 3.70417 3.70417 v 3.70416 3.70417 h -3.71057 -3.71056 l 0.0725,4.43177 0.0725,4.43177 4.0349,0.073 4.0349,0.073 v 3.69728 3.69727 h -8.0698 -8.06979 z"
       id="path888"
       inkscape:connector-curvature="0" />
  </g>
</svg>
